{"accessors" : [{"bufferView" : 0, "byteOffset" : 0, "componentType" : 5123, "count" : 21615, "type" : "SCALAR", "max" : [21614], "min" : [0]}, {"bufferView" : 1, "byteOffset" : 0, "componentType" : 5126, "count" : 21615, "type" : "VEC3", "max" : [0.22757086157798767, 0.33775439858436584, 0.4972164034843445], "min" : [-0.2279089391231537, -0.3411564230918884, -0.4994349777698517], "name" : "POSITION"}, {"bufferView" : 1, "byteOffset" : 12, "componentType" : 5126, "count" : 21615, "type" : "VEC3", "max" : [0.9998379945755005, 0.9998999238014221, 0.9939734935760498], "min" : [-0.9998626708984375, -0.99944669008255, -0.999965250492096], "name" : "NORMAL"}, {"bufferView" : 1, "byteOffset" : 24, "componentType" : 5126, "count" : 21615, "type" : "VEC2", "max" : [0.9978368878364563, 0.9987380504608154], "min" : [0.001261938945390284, 0.0012620091438293457], "name" : "TEXCOORD_0"}], "asset" : {"generator" : "Aspose.3D 24.6.0", "version" : "2.0"}, "buffers" : [{"uri" : "buffer.bin", "byteLength" : 1309260}], "bufferViews" : [{"buffer" : 0, "byteOffset" : 0, "byteLength" : 43232, "target" : 34963}, {"buffer" : 0, "byteOffset" : 43236, "byteLength" : 691680, "byteStride" : 32, "target" : 34962}, {"buffer" : 0, "byteOffset" : 734920, "byteLength" : 345108}, {"buffer" : 0, "byteOffset" : 1080032, "byteLength" : 229226}], "images" : [{"mimeType" : "image/jpeg", "bufferView" : 2}, {"mimeType" : "application/octet-stream", "bufferView" : 3}], "materials" : [{"name" : "tripo_mat_02d680ca", "pbrMetallicRoughness" : {"baseColorFactor" : [1, 1, 1, 1], "baseColorTexture" : {"index" : 1, "texCoord" : 0}, "metallicFactor" : 1, "roughnessFactor" : 1}, "normalTexture" : {"index" : 0, "texCoord" : 0, "scale" : 1}, "emissiveFactor" : [1, 1, 1], "alphaMode" : "OPAQUE", "doubleSided" : false}], "meshes" : [{"primitives" : [{"attributes" : {"POSITION" : 1, "NORMAL" : 2, "TEXCOORD_0" : 3}, "indices" : 0, "material" : 0, "mode" : 4}], "name" : "tripo_mesh_02d680ca"}], "nodes" : [{"matrix" : [100, 0, 0, 0, 0, -4.371139000186241E-06, -99.9999999999999, 0, 0, 99.9999999999999, -4.371139000186241E-06, 0, 0, 0, 0, 1], "mesh" : 0, "name" : "tripo_node_02d680ca"}], "samplers" : [{"magFilter" : 9729, "minFilter" : 9729, "wrapS" : 10497, "wrapT" : 10497}, {"magFilter" : 9729, "minFilter" : 9729, "wrapS" : 10497, "wrapT" : 10497}], "scene" : 0, "scenes" : [{"nodes" : [0]}], "textures" : [{"sampler" : 0, "source" : 0, "name" : "normalmap_texture"}, {"sampler" : 1, "source" : 1, "name" : "base_color_texture"}]}